<mxfile host="app.diagrams.net" modified="2022-03-09T03:30:19.213Z" agent="5.0 (Windows)" etag="Z9aLUbXP01b8tfBZ-IDK" version="17.0.0" type="github">
  <diagram id="2RH8-At6zr4JO2N2CYxe" name="Page-1">
    <mxGraphModel dx="1245" dy="443" grid="1" gridSize="10" guides="1" tooltips="1" connect="1" arrows="1" fold="1" page="1" pageScale="1" pageWidth="850" pageHeight="1100" math="0" shadow="0">
      <root>
        <mxCell id="0" />
        <mxCell id="1" parent="0" />
        <mxCell id="1J10HzMSyGZru3gA6xuf-7" value="&lt;font style=&quot;font-size: 16px&quot;&gt;Get World Position&lt;br&gt;&lt;/font&gt;" style="edgeStyle=orthogonalEdgeStyle;rounded=0;orthogonalLoop=1;jettySize=auto;html=1;exitX=0.5;exitY=0;exitDx=0;exitDy=0;entryX=0.5;entryY=1;entryDx=0;entryDy=0;fontSize=24;strokeWidth=3;" parent="1" source="1J10HzMSyGZru3gA6xuf-2" target="1J10HzMSyGZru3gA6xuf-3" edge="1">
          <mxGeometry relative="1" as="geometry">
            <Array as="points">
              <mxPoint x="305" y="160" />
              <mxPoint x="305" y="160" />
            </Array>
          </mxGeometry>
        </mxCell>
        <mxCell id="1J10HzMSyGZru3gA6xuf-8" style="edgeStyle=orthogonalEdgeStyle;rounded=0;orthogonalLoop=1;jettySize=auto;html=1;exitX=0;exitY=0.5;exitDx=0;exitDy=0;entryX=1;entryY=0.5;entryDx=0;entryDy=0;fontSize=24;strokeWidth=3;" parent="1" source="1J10HzMSyGZru3gA6xuf-2" target="1J10HzMSyGZru3gA6xuf-6" edge="1">
          <mxGeometry relative="1" as="geometry" />
        </mxCell>
        <mxCell id="1J10HzMSyGZru3gA6xuf-11" value="Add" style="edgeLabel;html=1;align=center;verticalAlign=middle;resizable=0;points=[];fontSize=16;" parent="1J10HzMSyGZru3gA6xuf-8" vertex="1" connectable="0">
          <mxGeometry x="-0.1467" y="-2" relative="1" as="geometry">
            <mxPoint as="offset" />
          </mxGeometry>
        </mxCell>
        <mxCell id="1J10HzMSyGZru3gA6xuf-9" value="&lt;div&gt;&lt;font size=&quot;3&quot;&gt;Work as&lt;/font&gt;&lt;/div&gt;&lt;div&gt;&lt;font size=&quot;3&quot;&gt;Driver Class&lt;/font&gt;&lt;/div&gt;" style="edgeStyle=orthogonalEdgeStyle;rounded=0;orthogonalLoop=1;jettySize=auto;html=1;exitX=1;exitY=0.5;exitDx=0;exitDy=0;entryX=0;entryY=0.5;entryDx=0;entryDy=0;fontSize=24;strokeWidth=3;" parent="1" source="1J10HzMSyGZru3gA6xuf-2" target="1J10HzMSyGZru3gA6xuf-5" edge="1">
          <mxGeometry relative="1" as="geometry" />
        </mxCell>
        <mxCell id="1J10HzMSyGZru3gA6xuf-10" value="&lt;font style=&quot;font-size: 16px&quot;&gt;Place Quest Location&lt;/font&gt;" style="edgeStyle=orthogonalEdgeStyle;rounded=0;orthogonalLoop=1;jettySize=auto;html=1;exitX=0.5;exitY=1;exitDx=0;exitDy=0;entryX=0.5;entryY=0;entryDx=0;entryDy=0;fontSize=24;strokeWidth=3;" parent="1" source="1J10HzMSyGZru3gA6xuf-2" target="1J10HzMSyGZru3gA6xuf-4" edge="1">
          <mxGeometry relative="1" as="geometry" />
        </mxCell>
        <mxCell id="1J10HzMSyGZru3gA6xuf-16" value="&lt;font style=&quot;font-size: 16px&quot;&gt;Start&lt;/font&gt;" style="edgeStyle=orthogonalEdgeStyle;rounded=0;orthogonalLoop=1;jettySize=auto;html=1;exitX=0;exitY=0;exitDx=0;exitDy=0;entryX=1;entryY=1;entryDx=0;entryDy=0;fontSize=24;strokeWidth=3;" parent="1" source="1J10HzMSyGZru3gA6xuf-2" target="1J10HzMSyGZru3gA6xuf-12" edge="1">
          <mxGeometry relative="1" as="geometry" />
        </mxCell>
        <mxCell id="1J10HzMSyGZru3gA6xuf-17" value="&lt;font style=&quot;font-size: 16px&quot;&gt;Spawn in&lt;/font&gt;" style="edgeStyle=orthogonalEdgeStyle;rounded=0;orthogonalLoop=1;jettySize=auto;html=1;exitX=1;exitY=0;exitDx=0;exitDy=0;entryX=0;entryY=1;entryDx=0;entryDy=0;fontSize=24;strokeWidth=3;" parent="1" source="1J10HzMSyGZru3gA6xuf-2" target="1J10HzMSyGZru3gA6xuf-13" edge="1">
          <mxGeometry relative="1" as="geometry" />
        </mxCell>
        <mxCell id="1J10HzMSyGZru3gA6xuf-18" value="&lt;font style=&quot;font-size: 16px&quot;&gt;have&lt;/font&gt;" style="edgeStyle=orthogonalEdgeStyle;rounded=0;orthogonalLoop=1;jettySize=auto;html=1;exitX=1;exitY=1;exitDx=0;exitDy=0;entryX=0;entryY=0;entryDx=0;entryDy=0;fontSize=24;strokeWidth=3;" parent="1" source="1J10HzMSyGZru3gA6xuf-2" target="1J10HzMSyGZru3gA6xuf-14" edge="1">
          <mxGeometry relative="1" as="geometry" />
        </mxCell>
        <mxCell id="1J10HzMSyGZru3gA6xuf-19" style="edgeStyle=orthogonalEdgeStyle;rounded=0;orthogonalLoop=1;jettySize=auto;html=1;exitX=0;exitY=1;exitDx=0;exitDy=0;entryX=1;entryY=0;entryDx=0;entryDy=0;fontSize=24;strokeWidth=3;" parent="1" source="1J10HzMSyGZru3gA6xuf-2" target="1J10HzMSyGZru3gA6xuf-15" edge="1">
          <mxGeometry relative="1" as="geometry" />
        </mxCell>
        <mxCell id="1J10HzMSyGZru3gA6xuf-20" value="&lt;font size=&quot;3&quot;&gt;Spawn in&lt;br&gt;&lt;/font&gt;" style="edgeLabel;html=1;align=center;verticalAlign=middle;resizable=0;points=[];fontSize=24;" parent="1J10HzMSyGZru3gA6xuf-19" vertex="1" connectable="0">
          <mxGeometry x="-0.1" relative="1" as="geometry">
            <mxPoint as="offset" />
          </mxGeometry>
        </mxCell>
        <mxCell id="1J10HzMSyGZru3gA6xuf-2" value="&lt;font style=&quot;font-size: 24px&quot;&gt;Open World&lt;/font&gt;" style="rounded=1;whiteSpace=wrap;html=1;strokeWidth=3;" parent="1" vertex="1">
          <mxGeometry x="210" y="210" width="190" height="90" as="geometry" />
        </mxCell>
        <mxCell id="1J10HzMSyGZru3gA6xuf-3" value="&lt;font style=&quot;font-size: 24px&quot;&gt;Player&lt;/font&gt;" style="rounded=1;whiteSpace=wrap;html=1;strokeWidth=3;" parent="1" vertex="1">
          <mxGeometry x="210" y="10" width="190" height="90" as="geometry" />
        </mxCell>
        <mxCell id="1J10HzMSyGZru3gA6xuf-4" value="&lt;font style=&quot;font-size: 24px&quot;&gt;Quest&lt;br&gt;&lt;/font&gt;" style="rounded=1;whiteSpace=wrap;html=1;strokeWidth=3;" parent="1" vertex="1">
          <mxGeometry x="210" y="410" width="190" height="90" as="geometry" />
        </mxCell>
        <mxCell id="1J10HzMSyGZru3gA6xuf-5" value="&lt;font style=&quot;font-size: 24px&quot;&gt;Single Player Mode&lt;br&gt;&lt;/font&gt;" style="rounded=1;whiteSpace=wrap;html=1;strokeWidth=3;" parent="1" vertex="1">
          <mxGeometry x="550" y="210" width="190" height="90" as="geometry" />
        </mxCell>
        <mxCell id="1J10HzMSyGZru3gA6xuf-6" value="&lt;font style=&quot;font-size: 24px&quot;&gt;Environment&lt;/font&gt;" style="rounded=1;whiteSpace=wrap;html=1;strokeWidth=3;" parent="1" vertex="1">
          <mxGeometry x="-130" y="210" width="190" height="90" as="geometry" />
        </mxCell>
        <mxCell id="1J10HzMSyGZru3gA6xuf-12" value="&lt;font style=&quot;font-size: 24px&quot;&gt;Bot&lt;br&gt;&lt;/font&gt;" style="rounded=1;whiteSpace=wrap;html=1;strokeWidth=3;" parent="1" vertex="1">
          <mxGeometry x="-130" y="10" width="190" height="90" as="geometry" />
        </mxCell>
        <mxCell id="1J10HzMSyGZru3gA6xuf-13" value="&lt;font style=&quot;font-size: 24px&quot;&gt;Character&lt;/font&gt;" style="rounded=1;whiteSpace=wrap;html=1;strokeWidth=3;" parent="1" vertex="1">
          <mxGeometry x="550" y="10" width="190" height="90" as="geometry" />
        </mxCell>
        <mxCell id="1J10HzMSyGZru3gA6xuf-14" value="&lt;font style=&quot;font-size: 24px&quot;&gt;In-game Item&lt;br&gt;&lt;/font&gt;" style="rounded=1;whiteSpace=wrap;html=1;strokeWidth=3;" parent="1" vertex="1">
          <mxGeometry x="550" y="410" width="190" height="90" as="geometry" />
        </mxCell>
        <mxCell id="1J10HzMSyGZru3gA6xuf-15" value="&lt;font style=&quot;font-size: 24px&quot;&gt;Game Object&lt;/font&gt;" style="rounded=1;whiteSpace=wrap;html=1;strokeWidth=3;" parent="1" vertex="1">
          <mxGeometry x="-130" y="410" width="190" height="90" as="geometry" />
        </mxCell>
      </root>
    </mxGraphModel>
  </diagram>
</mxfile>
